<svg width="15" height="15" viewBox="0 0 15 15" fill="none" xmlns="http://www.w3.org/2000/svg">
<g clip-path="url(#clip0_16_83)">
<path d="M13.3333 2.08331H1.66667C1.22464 2.08331 0.800716 2.25891 0.488155 2.57147C0.175595 2.88403 0 3.30795 0 3.74998L0 11.25C0 11.692 0.175595 12.1159 0.488155 12.4285C0.800716 12.7411 1.22464 12.9166 1.66667 12.9166H13.3333C13.7754 12.9166 14.1993 12.7411 14.5118 12.4285C14.8244 12.1159 15 11.692 15 11.25V3.74998C15 3.30795 14.8244 2.88403 14.5118 2.57147C14.1993 2.25891 13.7754 2.08331 13.3333 2.08331Z" fill="#DA251D"/>
<path d="M8.23042 6.68206L7.5 4.43414L6.76958 6.68206H4.40625L6.31833 8.07081L5.58792 10.3187L7.5 8.92956L9.41208 10.3187L8.68167 8.07081L10.5937 6.68206H8.23042Z" fill="#FFFF00"/>
</g>
<defs>
<clipPath id="clip0_16_83">
<rect width="15" height="15" fill="white"/>
</clipPath>
</defs>
</svg>
