<svg width="296" height="50" viewBox="0 0 296 50" fill="none" xmlns="http://www.w3.org/2000/svg">
<rect x="1" y="1" width="294" height="48" rx="9" stroke="#4068FE" stroke-opacity="0.5" stroke-width="2"/>
<path d="M98.25 19.6875H99.6562V29.75H104.906V31H98.25V19.6875ZM115.891 25.3438C115.891 26.5104 115.677 27.5339 115.25 28.4141C114.823 29.2943 114.232 29.9714 113.477 30.4453C112.721 30.9193 111.859 31.1562 110.891 31.1562C109.922 31.1562 109.06 30.9193 108.305 30.4453C107.549 29.9714 106.958 29.2943 106.531 28.4141C106.104 27.5339 105.891 26.5104 105.891 25.3438C105.891 24.1667 106.104 23.1406 106.531 22.2656C106.958 21.3906 107.549 20.7161 108.305 20.2422C109.06 19.7682 109.922 19.5312 110.891 19.5312C111.859 19.5312 112.721 19.7682 113.477 20.2422C114.232 20.7161 114.823 21.3906 115.25 22.2656C115.677 23.1406 115.891 24.1667 115.891 25.3438ZM114.531 25.3438C114.531 24.3958 114.372 23.5833 114.055 22.9062C113.737 22.2292 113.305 21.7161 112.758 21.3672C112.211 21.0182 111.589 20.8438 110.891 20.8438C110.203 20.8438 109.583 21.0182 109.031 21.3672C108.479 21.7161 108.044 22.2292 107.727 22.9062C107.409 23.5833 107.25 24.3958 107.25 25.3438C107.25 26.2917 107.409 27.1042 107.727 27.7812C108.044 28.4583 108.479 28.9714 109.031 29.3203C109.583 29.6693 110.203 29.8438 110.891 29.8438C111.589 29.8438 112.211 29.6693 112.758 29.3203C113.305 28.9714 113.737 28.4583 114.055 27.7812C114.372 27.1042 114.531 26.2917 114.531 25.3438ZM125.672 23.2188C125.516 22.7292 125.286 22.3073 124.984 21.9531C124.682 21.599 124.32 21.3255 123.898 21.1328C123.477 20.9401 123 20.8438 122.469 20.8438C121.792 20.8438 121.182 21.0182 120.641 21.3672C120.099 21.7161 119.669 22.2292 119.352 22.9062C119.034 23.5833 118.875 24.3958 118.875 25.3438C118.875 26.2917 119.034 27.1042 119.352 27.7812C119.669 28.4583 120.107 28.9714 120.664 29.3203C121.221 29.6693 121.854 29.8438 122.562 29.8438C123.208 29.8438 123.776 29.7057 124.266 29.4297C124.755 29.1536 125.135 28.7604 125.406 28.25C125.677 27.7396 125.812 27.151 125.812 26.4844L126.234 26.5625H122.859V25.3281H127.188V26.5469C127.188 27.4635 126.99 28.2708 126.594 28.9688C126.198 29.6667 125.651 30.2057 124.953 30.5859C124.255 30.9661 123.458 31.1562 122.562 31.1562C121.562 31.1562 120.682 30.9193 119.922 30.4453C119.161 29.9714 118.57 29.2969 118.148 28.4219C117.727 27.5469 117.516 26.5208 117.516 25.3438C117.516 24.1667 117.727 23.1406 118.148 22.2656C118.57 21.3906 119.156 20.7161 119.906 20.2422C120.656 19.7682 121.51 19.5312 122.469 19.5312C123.26 19.5312 123.984 19.6849 124.641 19.9922C125.297 20.2995 125.841 20.7318 126.273 21.2891C126.706 21.8464 126.99 22.4896 127.125 23.2188H125.672ZM130.703 31H129.297V19.6875H130.703V31ZM142.188 31H140.844L134.719 22.1875H134.609V31H133.203V19.6875H134.562L140.688 28.5156H140.797V19.6875H142.188V31ZM150.484 32.5938H149.328V18.0938H150.484V32.5938ZM169.641 30.5469H156.922V29.5156H169.641V30.5469ZM163.844 29.9688H162.641V26.5312H163.844V29.9688ZM168.031 23.6094H159.734V26.4219H158.516V22.6094H166.828V20.4219H158.484V19.4062H168.031V23.6094ZM168.359 26.8906H158.516V25.875H168.359V26.8906ZM181.156 20.875H172.125V19.8594H181.156V20.875ZM183.406 30.2188H170.75V29.2031H183.406V30.2188ZM181.703 21.4219C181.703 22.1615 181.695 22.8307 181.68 23.4297C181.664 24.0286 181.617 24.7135 181.539 25.4844C181.461 26.2552 181.344 27.0938 181.188 28L179.938 27.875C180.115 26.9896 180.245 26.1589 180.328 25.3828C180.411 24.6068 180.461 23.9193 180.477 23.3203C180.492 22.7214 180.5 22.0312 180.5 21.25V19.8594H181.703V21.25V21.4219ZM196.047 28.5469H194.828V18.3906H196.047V28.5469ZM196.484 31.9688H187.078V30.9375H196.484V31.9688ZM188.297 31.2812H187.078V27.5156H188.297V31.2812ZM188.547 19.3594C189.234 19.3594 189.857 19.5026 190.414 19.7891C190.971 20.0755 191.406 20.4792 191.719 21C192.031 21.5208 192.188 22.1094 192.188 22.7656C192.188 23.4323 192.031 24.0234 191.719 24.5391C191.406 25.0547 190.971 25.4583 190.414 25.75C189.857 26.0417 189.234 26.1875 188.547 26.1875C187.859 26.1875 187.24 26.0417 186.688 25.75C186.135 25.4583 185.701 25.0547 185.383 24.5391C185.065 24.0234 184.906 23.4323 184.906 22.7656C184.906 22.1094 185.065 21.5208 185.383 21C185.701 20.4792 186.135 20.0755 186.688 19.7891C187.24 19.5026 187.859 19.3594 188.547 19.3594ZM188.547 20.4375C188.089 20.4375 187.672 20.5365 187.297 20.7344C186.922 20.9323 186.63 21.2083 186.422 21.5625C186.214 21.9167 186.109 22.3177 186.109 22.7656C186.109 23.2135 186.214 23.6172 186.422 23.9766C186.63 24.3359 186.922 24.6146 187.297 24.8125C187.672 25.0104 188.089 25.1094 188.547 25.1094C189.005 25.1094 189.419 25.0104 189.789 24.8125C190.159 24.6146 190.451 24.3359 190.664 23.9766C190.878 23.6172 190.984 23.2135 190.984 22.7656C190.984 22.3177 190.878 21.9167 190.664 21.5625C190.451 21.2083 190.159 20.9323 189.789 20.7344C189.419 20.5365 189.005 20.4375 188.547 20.4375Z" fill="#3E3E3E"/>
</svg>
