<svg width="293" height="50" viewBox="0 0 293 50" fill="none" xmlns="http://www.w3.org/2000/svg">
<rect width="293" height="50" rx="5" fill="#4068FE"/>
<rect x="1" y="1" width="291" height="48" rx="4" stroke="#4068FE" stroke-opacity="0.5" stroke-width="2"/>
<path d="M92.25 31V19.6875H93.6562V29.75H98.9062V31H92.25ZM109.891 25.3438C109.891 28.9219 107.781 31.1562 104.891 31.1562C101.984 31.1562 99.8906 28.9219 99.8906 25.3438C99.8906 21.7656 101.984 19.5312 104.891 19.5312C107.781 19.5312 109.891 21.7656 109.891 25.3438ZM108.531 25.3438C108.531 22.4219 106.938 20.8438 104.891 20.8438C102.844 20.8438 101.25 22.4219 101.25 25.3438C101.25 28.2656 102.844 29.8438 104.891 29.8438C106.938 29.8438 108.531 28.2656 108.531 25.3438ZM119.672 23.2188C119.188 21.7656 118.078 20.8438 116.469 20.8438C114.469 20.8438 112.875 22.4219 112.875 25.3438C112.875 28.2656 114.469 29.8438 116.562 29.8438C118.477 29.8438 119.781 28.5625 119.812 26.5625H116.859V25.3281H121.188V26.5469C121.188 29.3594 119.25 31.1562 116.562 31.1562C113.547 31.1562 111.516 28.9219 111.516 25.3438C111.516 21.7656 113.562 19.5312 116.469 19.5312C118.859 19.5312 120.703 21.0312 121.125 23.2188H119.672ZM124.703 19.6875V31H123.297V19.6875H124.703ZM136.188 19.6875V31H134.844L128.719 22.1875H128.609V31H127.203V19.6875H128.562L134.688 28.5156H134.797V19.6875H136.188ZM148.5 18.0938V32.5938H147.344V18.0938H148.5ZM171.672 29.5156V30.5469H158.953V29.5156H164.672V26.8906H160.547V22.6094H168.859V20.4219H160.516V19.4062H170.062V23.6094H161.766V25.875H170.391V26.8906H165.875V29.5156H171.672ZM183.734 19.8594V21.25C183.734 23 183.734 24.9844 183.219 28L181.969 27.875C182.531 25.0312 182.531 22.9531 182.531 21.25V20.875H174.156V19.8594H183.734ZM185.438 29.2031V30.2188H172.781V29.2031H185.438ZM198.078 18.3906V28.5469H196.859V18.3906H198.078ZM198.516 30.9375V31.9688H189.109V27.5156H190.328V30.9375H198.516ZM190.578 19.3594C192.656 19.3594 194.219 20.7656 194.219 22.7656C194.219 24.7969 192.656 26.1875 190.578 26.1875C188.5 26.1875 186.938 24.7969 186.938 22.7656C186.938 20.7656 188.5 19.3594 190.578 19.3594ZM190.578 20.4375C189.172 20.4375 188.125 21.4062 188.141 22.7656C188.125 24.1562 189.172 25.1094 190.578 25.1094C191.953 25.1094 193.016 24.1562 193.016 22.7656C193.016 21.4062 191.953 20.4375 190.578 20.4375Z" fill="white"/>
</svg>
