<svg width="113" height="45" viewBox="0 0 113 45" fill="none" xmlns="http://www.w3.org/2000/svg">
<path d="M105 14C109.418 14 113 10.866 113 7C113 3.134 109.418 0 105 0C100.582 0 97 3.134 97 7C97 8.76 97.743 10.37 98.97 11.6C98.873 12.616 98.553 13.73 98.199 14.566C98.12 14.752 98.273 14.96 98.472 14.928C100.728 14.558 102.069 13.99 102.652 13.694C103.418 13.8983 104.207 14.0012 105 14Z" fill="#FFC700"/>
<path d="M2.5 37V14.375H5.3125V34.5H15.8125V37H2.5ZM37.7812 25.6875C37.7812 32.8438 33.5625 37.3125 27.7812 37.3125C21.9688 37.3125 17.7812 32.8438 17.7812 25.6875C17.7812 18.5312 21.9688 14.0625 27.7812 14.0625C33.5625 14.0625 37.7812 18.5312 37.7812 25.6875ZM35.0625 25.6875C35.0625 19.8438 31.875 16.6875 27.7812 16.6875C23.6875 16.6875 20.5 19.8438 20.5 25.6875C20.5 31.5312 23.6875 34.6875 27.7812 34.6875C31.875 34.6875 35.0625 31.5312 35.0625 25.6875ZM57.3438 21.4375C56.375 18.5312 54.1562 16.6875 50.9375 16.6875C46.9375 16.6875 43.75 19.8438 43.75 25.6875C43.75 31.5312 46.9375 34.6875 51.125 34.6875C54.9531 34.6875 57.5625 32.125 57.625 28.125H51.7188V25.6562H60.375V28.0938C60.375 33.7188 56.5 37.3125 51.125 37.3125C45.0938 37.3125 41.0312 32.8438 41.0312 25.6875C41.0312 18.5312 45.125 14.0625 50.9375 14.0625C55.7188 14.0625 59.4062 17.0625 60.25 21.4375H57.3438ZM67.4062 14.375V37H64.5938V14.375H67.4062ZM90.375 14.375V37H87.6875L75.4375 19.375H75.2188V37H72.4062V14.375H75.125L87.375 32.0312H87.5938V14.375H90.375Z" fill="#4068FE"/>
</svg>
