<svg width="181" height="49" viewBox="0 0 181 49" fill="none" xmlns="http://www.w3.org/2000/svg">
<path d="M173 15C177.418 15 181 11.866 181 8C181 4.134 177.418 1 173 1C168.582 1 165 4.134 165 8C165 9.76 165.743 11.37 166.97 12.6C166.873 13.616 166.553 14.73 166.199 15.566C166.12 15.752 166.273 15.96 166.472 15.928C168.728 15.558 170.069 14.99 170.652 14.694C171.418 14.8983 172.207 15.0012 173 15Z" fill="#FFC700"/>
<path d="M0.495 13.24H8.052L9.834 26.308L10.263 29.641H10.461L11.253 26.308L14.487 13.669L14.454 13.57H18.645L22.077 26.308L22.935 29.641H23.133L23.529 26.308L25.113 13.24H32.538L27.984 40.729H20.46L17.226 29.41L16.665 27.166H16.533L16.005 29.41L13.002 40.729H5.478L0.495 13.24ZM44.9122 41.488C42.6242 41.488 40.6882 41.081 39.1042 40.267C37.5202 39.453 36.3322 38.309 35.5402 36.835C34.7482 35.339 34.3522 33.601 34.3522 31.621C34.3522 29.355 34.8362 27.408 35.8042 25.78C36.7722 24.152 38.0482 22.92 39.6322 22.084C41.2382 21.248 42.9542 20.83 44.7802 20.83C46.5842 20.83 48.2782 21.237 49.8622 22.051C51.4682 22.843 52.7552 23.987 53.7232 25.483C54.7132 26.957 55.2082 28.673 55.2082 30.631V33.106H41.3482C41.3482 33.898 41.6672 34.536 42.3052 35.02C42.9432 35.504 43.7792 35.746 44.8132 35.746C45.6932 35.746 46.3752 35.658 46.8592 35.482C47.3652 35.284 47.7282 34.976 47.9482 34.558H55.1752C54.8672 36.802 53.8002 38.518 51.9742 39.706C50.1702 40.894 47.8162 41.488 44.9122 41.488ZM48.1792 29.311C48.1792 28.959 48.0582 28.585 47.8162 28.189C47.5742 27.793 47.2002 27.463 46.6942 27.199C46.2102 26.913 45.6272 26.77 44.9452 26.77C44.2412 26.77 43.6472 26.913 43.1632 27.199C42.6792 27.463 42.3162 27.793 42.0742 28.189C41.8322 28.585 41.7112 28.959 41.7112 29.311H48.1792ZM58.7364 14.461C58.5164 14.461 58.3404 14.527 58.2084 14.659L57.6804 14.23C57.7244 13.702 58.2194 13.35 59.1654 13.174C60.1114 12.998 61.4534 12.91 63.1914 12.91H65.7984C65.9304 16.87 65.9964 21.501 65.9964 26.803C65.9964 32.083 65.9304 36.725 65.7984 40.729L58.8354 40.861V14.461H58.7364ZM79.6847 41.488C77.4627 41.488 75.5487 41.059 73.9427 40.201C72.3587 39.365 71.1597 38.21 70.3457 36.736C69.5317 35.24 69.1247 33.535 69.1247 31.621C69.1247 29.553 69.6197 27.694 70.6097 26.044C71.6217 24.394 72.9307 23.118 74.5367 22.216C76.1647 21.292 77.8807 20.83 79.6847 20.83C81.2467 20.83 82.7757 21.215 84.2717 21.985C85.7677 22.755 86.9887 23.822 87.9347 25.186C88.9027 26.528 89.4197 28.035 89.4857 29.707H82.8527C82.6987 29.091 82.3137 28.563 81.6977 28.123C81.1037 27.683 80.4327 27.463 79.6847 27.463C78.6947 27.463 77.8807 27.848 77.2427 28.618C76.6267 29.388 76.3187 30.367 76.3187 31.555C76.3187 32.677 76.6047 33.568 77.1767 34.228C77.7487 34.866 78.5847 35.185 79.6847 35.185C80.6087 35.185 81.3347 34.998 81.8627 34.624C82.3907 34.228 82.7097 33.667 82.8197 32.941H89.4857C89.4857 34.657 89.1007 36.153 88.3307 37.429C87.5607 38.727 86.4387 39.728 84.9647 40.432C83.4907 41.136 81.7307 41.488 79.6847 41.488ZM115.775 22.711C115.555 22.711 115.379 22.777 115.247 22.909L114.719 22.48C114.763 21.952 115.258 21.6 116.204 21.424C117.15 21.248 118.492 21.16 120.23 21.16H122.837L122.936 24.163C123.574 23.085 124.366 22.26 125.312 21.688C126.28 21.116 127.369 20.83 128.579 20.83C131.395 20.83 133.243 22.238 134.123 25.054C134.695 23.712 135.498 22.678 136.532 21.952C137.588 21.204 138.809 20.83 140.195 20.83C142.329 20.83 143.957 21.6 145.079 23.14C146.201 24.658 146.762 26.726 146.762 29.344C146.762 31.236 146.74 33.26 146.696 35.416C146.674 37.572 146.641 39.343 146.597 40.729L139.634 40.861V30.73C139.634 28.42 138.831 27.265 137.225 27.265C136.477 27.265 135.861 27.595 135.377 28.255C134.893 28.893 134.651 29.718 134.651 30.73C134.607 36.076 134.552 39.409 134.486 40.729L128.018 40.861V30.73C128.018 28.42 127.215 27.265 125.609 27.265C124.861 27.265 124.245 27.595 123.761 28.255C123.277 28.893 123.035 29.718 123.035 30.73C123.035 34.514 122.969 37.847 122.837 40.729L115.874 40.861V22.711H115.775ZM160.443 41.488C158.155 41.488 156.219 41.081 154.635 40.267C153.051 39.453 151.863 38.309 151.071 36.835C150.279 35.339 149.883 33.601 149.883 31.621C149.883 29.355 150.367 27.408 151.335 25.78C152.303 24.152 153.579 22.92 155.163 22.084C156.769 21.248 158.485 20.83 160.311 20.83C162.115 20.83 163.809 21.237 165.393 22.051C166.999 22.843 168.286 23.987 169.254 25.483C170.244 26.957 170.739 28.673 170.739 30.631V33.106H156.879C156.879 33.898 157.198 34.536 157.836 35.02C158.474 35.504 159.31 35.746 160.344 35.746C161.224 35.746 161.906 35.658 162.39 35.482C162.896 35.284 163.259 34.976 163.479 34.558H170.706C170.398 36.802 169.331 38.518 167.505 39.706C165.701 40.894 163.347 41.488 160.443 41.488ZM163.71 29.311C163.71 28.959 163.589 28.585 163.347 28.189C163.105 27.793 162.731 27.463 162.225 27.199C161.741 26.913 161.158 26.77 160.476 26.77C159.772 26.77 159.178 26.913 158.694 27.199C158.21 27.463 157.847 27.793 157.605 28.189C157.363 28.585 157.242 28.959 157.242 29.311H163.71Z" fill="#4068FE"/>
<path d="M102.5 21C108.299 21 113 25.7009 113 31.5C113 37.2991 108.299 42 102.5 42C96.7009 42 92 37.2991 92 31.5C92 25.7009 96.7009 21 102.5 21ZM106.704 32.4219C106.342 31.8706 106.08 31.4737 105.085 31.6312C103.206 31.9294 102.997 32.2581 102.907 32.7999L102.882 32.9637L102.856 33.138C102.754 33.8552 102.757 34.126 103.087 34.4715C104.415 35.8659 105.211 36.8707 105.453 37.4587C105.57 37.7454 105.873 38.6138 105.665 39.4727C106.939 38.965 108.074 38.1596 108.973 37.1238C109.089 36.7311 109.173 36.2418 109.173 35.6496V35.5393C109.173 34.5712 109.173 34.1292 108.488 33.7375C108.268 33.6128 108.042 33.4989 107.811 33.3963C107.426 33.2209 107.17 33.1065 106.826 32.6025C106.784 32.543 106.744 32.4827 106.704 32.4219ZM102.5 22.9246C100.067 22.9246 97.8695 23.9389 96.3092 25.5664C96.495 25.6956 96.6567 25.8772 96.768 26.1271C96.9822 26.607 96.9822 27.1015 96.9822 27.5394C96.9822 27.8838 96.9822 28.2114 97.0925 28.4476C97.2437 28.771 97.8968 28.9096 98.4732 29.0294C98.6801 29.0735 98.8922 29.1175 99.0854 29.1711C99.6167 29.3181 100.028 29.7958 100.357 30.1791C100.493 30.3376 100.696 30.5718 100.798 30.6306C100.85 30.5928 101.019 30.409 101.102 30.1077C101.168 29.8767 101.149 29.673 101.055 29.5617C100.467 28.8687 100.5 27.5352 100.681 27.0427C100.967 26.2668 101.859 26.3245 102.513 26.3665C102.756 26.3823 102.985 26.398 103.157 26.376C103.81 26.2941 104.012 25.2997 104.154 25.1055C104.46 24.6855 105.399 24.0523 105.981 23.6617C104.885 23.1745 103.699 22.9234 102.5 22.9246Z" fill="#4068FE"/>
</svg>
