<svg width="293" height="50" viewBox="0 0 293 50" fill="none" xmlns="http://www.w3.org/2000/svg">
<rect width="293" height="50" rx="5" fill="#4068FE"/>
<rect x="1" y="1" width="291" height="48" rx="4" stroke="#4068FE" stroke-opacity="0.5" stroke-width="2"/>
<path d="M87.4219 22.5312C87.3802 22.1667 87.25 21.8516 87.0312 21.5859C86.8125 21.3203 86.5208 21.1198 86.1562 20.9844C85.7917 20.849 85.3802 20.7812 84.9219 20.7812C84.4323 20.7812 84 20.8594 83.625 21.0156C83.25 21.1719 82.9583 21.3906 82.75 21.6719C82.5417 21.9531 82.4375 22.276 82.4375 22.6406C82.4375 23.1615 82.651 23.5599 83.0781 23.8359C83.5052 24.112 84.0208 24.3281 84.625 24.4844L85.75 24.7969C86.625 25.0156 87.3776 25.3594 88.0078 25.8281C88.638 26.2969 88.9531 26.9948 88.9531 27.9219C88.9531 28.5365 88.7917 29.0938 88.4688 29.5938C88.1458 30.0938 87.6745 30.487 87.0547 30.7734C86.4349 31.0599 85.6979 31.2031 84.8438 31.2031C84.0417 31.2031 83.3411 31.0729 82.7422 30.8125C82.1432 30.5521 81.6745 30.1849 81.3359 29.7109C80.9974 29.237 80.8073 28.6875 80.7656 28.0625H82.2031C82.2448 28.4688 82.388 28.8099 82.6328 29.0859C82.8776 29.362 83.1927 29.5703 83.5781 29.7109C83.9635 29.8516 84.3854 29.9219 84.8438 29.9219C85.3646 29.9219 85.8333 29.8385 86.25 29.6719C86.6667 29.5052 86.9922 29.2656 87.2266 28.9531C87.4609 28.6406 87.5781 28.2865 87.5781 27.8906C87.5781 27.5469 87.4818 27.2578 87.2891 27.0234C87.0964 26.7891 86.8411 26.599 86.5234 26.4531C86.2057 26.3073 85.8125 26.1667 85.3438 26.0312L83.9531 25.6562C83.026 25.3854 82.3151 25.0104 81.8203 24.5312C81.3255 24.0521 81.0781 23.4427 81.0781 22.7031C81.0781 22.0781 81.25 21.526 81.5938 21.0469C81.9375 20.5677 82.4036 20.1953 82.9922 19.9297C83.5807 19.6641 84.2396 19.5312 84.9688 19.5312C85.6875 19.5312 86.3333 19.6615 86.9062 19.9219C87.4792 20.1823 87.9323 20.5391 88.2656 20.9922C88.599 21.4453 88.776 21.9583 88.7969 22.5312H87.4219ZM92.375 31H90.9688V19.6875H92.375V31ZM102.594 23.2188C102.438 22.7292 102.208 22.3073 101.906 21.9531C101.604 21.599 101.242 21.3255 100.82 21.1328C100.398 20.9401 99.9219 20.8438 99.3906 20.8438C98.7135 20.8438 98.1042 21.0182 97.5625 21.3672C97.0208 21.7161 96.5911 22.2292 96.2734 22.9062C95.9557 23.5833 95.7969 24.3958 95.7969 25.3438C95.7969 26.2917 95.9557 27.1042 96.2734 27.7812C96.5911 28.4583 97.0286 28.9714 97.5859 29.3203C98.1432 29.6693 98.776 29.8438 99.4844 29.8438C100.13 29.8438 100.698 29.7057 101.188 29.4297C101.677 29.1536 102.057 28.7604 102.328 28.25C102.599 27.7396 102.734 27.151 102.734 26.4844L103.156 26.5625H99.7812V25.3281H104.109V26.5469C104.109 27.4635 103.911 28.2708 103.516 28.9688C103.12 29.6667 102.573 30.2057 101.875 30.5859C101.177 30.9661 100.38 31.1562 99.4844 31.1562C98.4844 31.1562 97.6042 30.9193 96.8438 30.4453C96.0833 29.9714 95.4922 29.2969 95.0703 28.4219C94.6484 27.5469 94.4375 26.5208 94.4375 25.3438C94.4375 24.1667 94.6484 23.1406 95.0703 22.2656C95.4922 21.3906 96.0781 20.7161 96.8281 20.2422C97.5781 19.7682 98.4323 19.5312 99.3906 19.5312C100.182 19.5312 100.906 19.6849 101.562 19.9922C102.219 20.2995 102.763 20.7318 103.195 21.2891C103.628 21.8464 103.911 22.4896 104.047 23.2188H102.594ZM115.203 31H113.859L107.734 22.1875H107.625V31H106.219V19.6875H107.578L113.703 28.5156H113.812V19.6875H115.203V31ZM130.531 19.6875V27.1719C130.531 27.9427 130.349 28.6328 129.984 29.2422C129.62 29.8516 129.104 30.3307 128.438 30.6797C127.771 31.0286 127 31.2031 126.125 31.2031C125.25 31.2031 124.479 31.0286 123.812 30.6797C123.146 30.3307 122.63 29.8516 122.266 29.2422C121.901 28.6328 121.719 27.9427 121.719 27.1719V19.6875H123.125V27.0625C123.125 27.6042 123.247 28.0885 123.492 28.5156C123.737 28.9427 124.086 29.2786 124.539 29.5234C124.992 29.7682 125.521 29.8906 126.125 29.8906C126.74 29.8906 127.273 29.7682 127.727 29.5234C128.18 29.2786 128.526 28.9427 128.766 28.5156C129.005 28.0885 129.125 27.6042 129.125 27.0625V19.6875H130.531ZM133.031 19.6875H136.875C137.729 19.6875 138.445 19.8438 139.023 20.1562C139.602 20.4688 140.031 20.8932 140.312 21.4297C140.594 21.9661 140.734 22.5833 140.734 23.2812C140.734 23.9688 140.594 24.5833 140.312 25.125C140.031 25.6667 139.604 26.0964 139.031 26.4141C138.458 26.7318 137.745 26.8906 136.891 26.8906H134.141V25.6406H136.828C137.411 25.6406 137.891 25.5391 138.266 25.3359C138.641 25.1328 138.914 24.8542 139.086 24.5C139.258 24.1458 139.344 23.7396 139.344 23.2812C139.344 22.8125 139.258 22.4036 139.086 22.0547C138.914 21.7057 138.638 21.4323 138.258 21.2344C137.878 21.0365 137.396 20.9375 136.812 20.9375H134.438V31H133.031V19.6875ZM152.516 32.5938H151.359V18.0938H152.516V32.5938ZM168.234 29H167V26.7031H168.234V29ZM174.359 32.2656H173.141V18.375H174.359V32.2656ZM163.141 28.5625C165.057 28.5521 166.721 28.5208 168.133 28.4688C169.544 28.4167 170.906 28.3021 172.219 28.125L172.312 29.0625C170.938 29.2812 169.505 29.4271 168.016 29.5C166.526 29.5729 164.932 29.6094 163.234 29.6094L163.047 28.5625H163.141ZM171.859 21.0938H163.344V20.0938H171.859V21.0938ZM167.594 21.8906C168.26 21.8906 168.846 21.9974 169.352 22.2109C169.857 22.4245 170.25 22.724 170.531 23.1094C170.812 23.4948 170.953 23.9479 170.953 24.4688C170.953 24.9792 170.812 25.4245 170.531 25.8047C170.25 26.1849 169.857 26.4818 169.352 26.6953C168.846 26.9089 168.26 27.0156 167.594 27.0156C166.938 27.0156 166.357 26.9115 165.852 26.7031C165.346 26.4948 164.956 26.1979 164.68 25.8125C164.404 25.4271 164.266 24.9792 164.266 24.4688C164.266 23.9479 164.404 23.4948 164.68 23.1094C164.956 22.724 165.346 22.4245 165.852 22.2109C166.357 21.9974 166.938 21.8906 167.594 21.8906ZM167.594 22.8438C167.177 22.8438 166.802 22.9115 166.469 23.0469C166.135 23.1823 165.875 23.3724 165.688 23.6172C165.5 23.862 165.406 24.1458 165.406 24.4688C165.406 24.7812 165.5 25.0573 165.688 25.2969C165.875 25.5365 166.135 25.7214 166.469 25.8516C166.802 25.9818 167.177 26.0469 167.594 26.0469C168.021 26.0469 168.401 25.9844 168.734 25.8594C169.068 25.7344 169.326 25.5495 169.508 25.3047C169.69 25.0599 169.781 24.7812 169.781 24.4688C169.781 24.1458 169.69 23.862 169.508 23.6172C169.326 23.3724 169.068 23.1823 168.734 23.0469C168.401 22.9115 168.021 22.8438 167.594 22.8438ZM168.234 20.625H167V18.3906H168.234V20.625ZM182.031 28.4531H180.797V25.3594H182.031V28.4531ZM188.25 28.9375H187.016V18.3906H188.25V28.9375ZM188.594 31.9688H178.719V30.9375H188.594V31.9688ZM179.953 31.2344H178.719V27.9062H179.953V31.2344ZM176.828 24.8281C178.724 24.8177 180.367 24.7891 181.758 24.7422C183.148 24.6953 184.484 24.5885 185.766 24.4219L185.844 25.3125C184.49 25.5312 183.062 25.6745 181.562 25.7422C180.062 25.8099 178.505 25.8385 176.891 25.8281L176.719 24.8281H176.828ZM187.344 27.5H184.141V26.6094H187.344V27.5ZM181.281 18.9531C181.958 18.9531 182.555 19.0521 183.07 19.25C183.586 19.4479 183.99 19.7318 184.281 20.1016C184.573 20.4714 184.719 20.8958 184.719 21.375C184.719 21.8646 184.573 22.2891 184.281 22.6484C183.99 23.0078 183.586 23.2865 183.07 23.4844C182.555 23.6823 181.958 23.7812 181.281 23.7812C180.604 23.7812 180.005 23.6823 179.484 23.4844C178.964 23.2865 178.56 23.0078 178.273 22.6484C177.987 22.2891 177.844 21.8646 177.844 21.375C177.844 20.8958 177.987 20.4714 178.273 20.1016C178.56 19.7318 178.964 19.4479 179.484 19.25C180.005 19.0521 180.604 18.9531 181.281 18.9531ZM181.281 19.8906C180.833 19.8802 180.438 19.9375 180.094 20.0625C179.75 20.1875 179.484 20.3646 179.297 20.5938C179.109 20.8229 179.016 21.0833 179.016 21.375C179.016 21.6667 179.109 21.9271 179.297 22.1562C179.484 22.3854 179.75 22.5625 180.094 22.6875C180.438 22.8125 180.833 22.875 181.281 22.875C181.719 22.875 182.109 22.8125 182.453 22.6875C182.797 22.5625 183.065 22.3854 183.258 22.1562C183.451 21.9271 183.547 21.6667 183.547 21.375C183.547 21.0833 183.448 20.8229 183.25 20.5938C183.052 20.3646 182.784 20.1875 182.445 20.0625C182.107 19.9375 181.719 19.8802 181.281 19.8906ZM201.375 32.2656H200.156V18.375H201.375V32.2656ZM203.625 25.0625H201.062V24.0312H203.625V25.0625ZM197.781 19.875C197.781 21.2292 197.56 22.5052 197.117 23.7031C196.674 24.901 195.979 26.0052 195.031 27.0156C194.083 28.026 192.875 28.8958 191.406 29.625L190.719 28.6562C192.01 28.0104 193.091 27.2552 193.961 26.3906C194.831 25.526 195.484 24.5651 195.922 23.5078C196.359 22.4505 196.578 21.3073 196.578 20.0781V19.875H197.781ZM197.203 20.9062H191.359V19.875H197.203V20.9062ZM215.922 25.8281H214.703V18.375H215.922V25.8281ZM208.141 28.2188H214.703V26.5312H215.922V32.0781H206.922V26.5312H208.141V28.2188ZM214.703 31.0781V29.2031H208.141V31.0781H214.703ZM208.422 19.0625C209.12 19.0521 209.745 19.1797 210.297 19.4453C210.849 19.7109 211.281 20.0885 211.594 20.5781C211.906 21.0677 212.062 21.625 212.062 22.25C212.062 22.8646 211.906 23.4141 211.594 23.8984C211.281 24.3828 210.849 24.7604 210.297 25.0312C209.745 25.3021 209.12 25.4375 208.422 25.4375C207.724 25.4375 207.099 25.3021 206.547 25.0312C205.995 24.7604 205.562 24.3828 205.25 23.8984C204.938 23.4141 204.781 22.8646 204.781 22.25C204.781 21.625 204.938 21.0677 205.25 20.5781C205.562 20.0885 205.995 19.7109 206.547 19.4453C207.099 19.1797 207.724 19.0521 208.422 19.0625ZM208.422 20.0938C207.953 20.0833 207.534 20.1719 207.164 20.3594C206.794 20.5469 206.505 20.8047 206.297 21.1328C206.089 21.4609 205.984 21.8333 205.984 22.25C205.984 22.6667 206.089 23.0391 206.297 23.3672C206.505 23.6953 206.794 23.9531 207.164 24.1406C207.534 24.3281 207.953 24.4219 208.422 24.4219C208.891 24.4219 209.31 24.3281 209.68 24.1406C210.049 23.9531 210.339 23.6953 210.547 23.3672C210.755 23.0391 210.859 22.6667 210.859 22.25C210.859 21.8333 210.755 21.4609 210.547 21.1328C210.339 20.8047 210.049 20.5469 209.68 20.3594C209.31 20.1719 208.891 20.0833 208.422 20.0938Z" fill="white"/>
</svg>
