<svg width="142" height="45" viewBox="0 0 142 45" fill="none" xmlns="http://www.w3.org/2000/svg">
<path d="M134 14C138.418 14 142 10.866 142 7C142 3.134 138.418 0 134 0C129.582 0 126 3.134 126 7C126 8.76 126.743 10.37 127.97 11.6C127.873 12.616 127.553 13.73 127.199 14.566C127.12 14.752 127.273 14.96 127.472 14.928C129.728 14.558 131.069 13.99 131.652 13.694C132.418 13.8983 133.207 14.0012 134 14Z" fill="#FFC700"/>
<path d="M14.8438 20.0625C14.7604 19.3333 14.5 18.7031 14.0625 18.1719C13.625 17.6406 13.0417 17.2396 12.3125 16.9688C11.5833 16.6979 10.7604 16.5625 9.84375 16.5625C8.86458 16.5625 8 16.7188 7.25 17.0312C6.5 17.3438 5.91667 17.7812 5.5 18.3438C5.08333 18.9062 4.875 19.5521 4.875 20.2812C4.875 21.3229 5.30208 22.1198 6.15625 22.6719C7.01042 23.224 8.04167 23.6562 9.25 23.9688L11.5 24.5938C13.25 25.0312 14.7552 25.7188 16.0156 26.6562C17.276 27.5938 17.9062 28.9896 17.9062 30.8438C17.9062 32.0729 17.5833 33.1875 16.9375 34.1875C16.2917 35.1875 15.349 35.974 14.1094 36.5469C12.8698 37.1198 11.3958 37.4062 9.6875 37.4062C8.08333 37.4062 6.68229 37.1458 5.48438 36.625C4.28646 36.1042 3.34896 35.3698 2.67188 34.4219C1.99479 33.474 1.61458 32.375 1.53125 31.125H4.40625C4.48958 31.9375 4.77604 32.6198 5.26562 33.1719C5.75521 33.724 6.38542 34.1406 7.15625 34.4219C7.92708 34.7031 8.77083 34.8438 9.6875 34.8438C10.7292 34.8438 11.6667 34.6771 12.5 34.3438C13.3333 34.0104 13.9844 33.5312 14.4531 32.9062C14.9219 32.2812 15.1562 31.5729 15.1562 30.7812C15.1562 30.0938 14.9635 29.5156 14.5781 29.0469C14.1927 28.5781 13.6823 28.1979 13.0469 27.9062C12.4115 27.6146 11.625 27.3333 10.6875 27.0625L7.90625 26.3125C6.05208 25.7708 4.63021 25.0208 3.64062 24.0625C2.65104 23.1042 2.15625 21.8854 2.15625 20.4062C2.15625 19.1562 2.5 18.0521 3.1875 17.0938C3.875 16.1354 4.80729 15.3906 5.98438 14.8594C7.16146 14.3281 8.47917 14.0625 9.9375 14.0625C11.375 14.0625 12.6667 14.3229 13.8125 14.8438C14.9583 15.3646 15.8646 16.0781 16.5312 16.9844C17.1979 17.8906 17.5521 18.9167 17.5938 20.0625H14.8438ZM24.75 37H21.9375V14.375H24.75V37ZM45.1875 21.4375C44.875 20.4583 44.4167 19.6146 43.8125 18.9062C43.2083 18.1979 42.4844 17.651 41.6406 17.2656C40.7969 16.8802 39.8438 16.6875 38.7812 16.6875C37.4271 16.6875 36.2083 17.0365 35.125 17.7344C34.0417 18.4323 33.1823 19.4583 32.5469 20.8125C31.9115 22.1667 31.5938 23.7917 31.5938 25.6875C31.5938 27.5833 31.9115 29.2083 32.5469 30.5625C33.1823 31.9167 34.0573 32.9427 35.1719 33.6406C36.2865 34.3385 37.5521 34.6875 38.9688 34.6875C40.2604 34.6875 41.3958 34.4115 42.375 33.8594C43.3542 33.3073 44.1146 32.5208 44.6562 31.5C45.1979 30.4792 45.4688 29.3021 45.4688 27.9688L46.3125 28.125H39.5625V25.6562H48.2188V28.0938C48.2188 29.9271 47.8229 31.5417 47.0312 32.9375C46.2396 34.3333 45.1458 35.4115 43.75 36.1719C42.3542 36.9323 40.7604 37.3125 38.9688 37.3125C36.9688 37.3125 35.2083 36.8385 33.6875 35.8906C32.1667 34.9427 30.9844 33.5938 30.1406 31.8438C29.2969 30.0938 28.875 28.0417 28.875 25.6875C28.875 23.3333 29.2969 21.2812 30.1406 19.5312C30.9844 17.7812 32.1562 16.4323 33.6562 15.4844C35.1562 14.5365 36.8646 14.0625 38.7812 14.0625C40.3646 14.0625 41.8125 14.3698 43.125 14.9844C44.4375 15.599 45.526 16.4635 46.3906 17.5781C47.2552 18.6927 47.8229 19.9792 48.0938 21.4375H45.1875ZM70.4062 37H67.7188L55.4688 19.375H55.25V37H52.4375V14.375H55.1562L67.4062 32.0312H67.625V14.375H70.4062V37ZM101.062 14.375V29.3438C101.062 30.8854 100.698 32.2656 99.9688 33.4844C99.2396 34.7031 98.2083 35.6615 96.875 36.3594C95.5417 37.0573 94 37.4062 92.25 37.4062C90.5 37.4062 88.9583 37.0573 87.625 36.3594C86.2917 35.6615 85.2604 34.7031 84.5312 33.4844C83.8021 32.2656 83.4375 30.8854 83.4375 29.3438V14.375H86.25V29.125C86.25 30.2083 86.4948 31.1771 86.9844 32.0312C87.474 32.8854 88.1719 33.5573 89.0781 34.0469C89.9844 34.5365 91.0417 34.7812 92.25 34.7812C93.4792 34.7812 94.5469 34.5365 95.4531 34.0469C96.3594 33.5573 97.0521 32.8854 97.5312 32.0312C98.0104 31.1771 98.25 30.2083 98.25 29.125V14.375H101.062ZM106.062 14.375H113.75C115.458 14.375 116.891 14.6875 118.047 15.3125C119.203 15.9375 120.062 16.7865 120.625 17.8594C121.188 18.9323 121.469 20.1667 121.469 21.5625C121.469 22.9375 121.188 24.1667 120.625 25.25C120.062 26.3333 119.208 27.1927 118.062 27.8281C116.917 28.4635 115.49 28.7812 113.781 28.7812H108.281V26.2812H113.656C114.823 26.2812 115.781 26.0781 116.531 25.6719C117.281 25.2656 117.828 24.7083 118.172 24C118.516 23.2917 118.688 22.4792 118.688 21.5625C118.688 20.625 118.516 19.8073 118.172 19.1094C117.828 18.4115 117.276 17.8646 116.516 17.4688C115.755 17.0729 114.792 16.875 113.625 16.875H108.875V37H106.062V14.375Z" fill="#4068FE"/>
</svg>
