<svg width="296" height="50" viewBox="0 0 296 50" fill="none" xmlns="http://www.w3.org/2000/svg">
<rect width="296" height="50" rx="10" fill="#4068FE"/>
<rect x="1" y="1" width="294" height="48" rx="9" stroke="#4068FE" stroke-opacity="0.5" stroke-width="2"/>
<path d="M90.4219 22.5312C90.2969 21.4219 89.2812 20.7812 87.9219 20.7812C86.4219 20.7812 85.4375 21.5625 85.4375 22.6406C85.4375 23.8281 86.7656 24.2656 87.625 24.4844L88.75 24.7969C89.9688 25.1094 91.9531 25.8125 91.9531 27.9219C91.9531 29.7656 90.4688 31.2031 87.8438 31.2031C85.4062 31.2031 83.8906 29.9375 83.7656 28.0625H85.2031C85.3281 29.3281 86.5 29.9219 87.8438 29.9219C89.4062 29.9219 90.5781 29.125 90.5781 27.8906C90.5781 26.7969 89.5312 26.375 88.3438 26.0312L86.9531 25.6562C85.1719 25.1406 84.0781 24.2344 84.0781 22.7031C84.0781 20.7969 85.7812 19.5312 87.9688 19.5312C90.1562 19.5312 91.7344 20.8125 91.7969 22.5312H90.4219ZM95.375 19.6875V31H93.9688V19.6875H95.375ZM105.594 23.2188C105.109 21.7656 104 20.8438 102.391 20.8438C100.391 20.8438 98.7969 22.4219 98.7969 25.3438C98.7969 28.2656 100.391 29.8438 102.484 29.8438C104.398 29.8438 105.703 28.5625 105.734 26.5625H102.781V25.3281H107.109V26.5469C107.109 29.3594 105.172 31.1562 102.484 31.1562C99.4688 31.1562 97.4375 28.9219 97.4375 25.3438C97.4375 21.7656 99.4844 19.5312 102.391 19.5312C104.781 19.5312 106.625 21.0312 107.047 23.2188H105.594ZM118.203 19.6875V31H116.859L110.734 22.1875H110.625V31H109.219V19.6875H110.578L116.703 28.5156H116.812V19.6875H118.203ZM132.125 19.6875H133.531V27.1719C133.531 29.5 131.797 31.2031 129.125 31.2031C126.453 31.2031 124.719 29.5 124.719 27.1719V19.6875H126.125V27.0625C126.125 28.7031 127.266 29.8906 129.125 29.8906C131 29.8906 132.125 28.7031 132.125 27.0625V19.6875ZM136.031 31V19.6875H139.875C142.531 19.6875 143.734 21.2656 143.734 23.2812C143.734 25.2812 142.531 26.8906 139.891 26.8906H137.438V31H136.031ZM137.438 25.6406H139.828C141.625 25.6406 142.344 24.625 142.344 23.2812C142.344 21.9219 141.625 20.9375 139.812 20.9375H137.438V25.6406ZM151.5 18.0938V32.5938H150.344V18.0938H151.5ZM169.328 18.375V32.2656H168.109V18.375H169.328ZM158.016 28.5625C159.203 28.5547 160.562 28.5469 161.969 28.5V26.9844C160.305 26.8047 159.219 25.8594 159.234 24.4688C159.219 22.9062 160.562 21.8906 162.562 21.8906C164.562 21.8906 165.922 22.9062 165.922 24.4688C165.922 25.8438 164.844 26.7891 163.203 26.9688V28.4531C164.547 28.3984 165.906 28.2969 167.188 28.125L167.281 29.0625C164.188 29.5625 160.781 29.6094 158.203 29.6094L158.016 28.5625ZM166.828 20.0938V21.0938H158.312V20.0938H161.969V18.3906H163.203V20.0938H166.828ZM162.562 22.8438C161.281 22.8438 160.375 23.5 160.375 24.4688C160.375 25.4375 161.281 26.0625 162.562 26.0469C163.859 26.0625 164.75 25.4375 164.75 24.4688C164.75 23.5 163.859 22.8438 162.562 22.8438ZM183.219 18.3906V28.9375H181.984V27.5H179.109V26.6094H181.984V18.3906H183.219ZM183.562 30.9375V31.9688H173.688V27.9062H174.922V30.9375H183.562ZM171.688 24.8281C174.281 24.8125 177.75 24.7969 180.734 24.4219L180.812 25.3125C179.57 25.5078 178.273 25.6328 177 25.7031V28.4531H175.766V25.7656C174.359 25.8281 173.023 25.8359 171.859 25.8281L171.688 24.8281ZM176.25 18.9531C178.281 18.9531 179.672 19.9219 179.688 21.375C179.672 22.8594 178.281 23.7812 176.25 23.7812C174.203 23.7812 172.812 22.8594 172.812 21.375C172.812 19.9219 174.203 18.9531 176.25 18.9531ZM176.25 19.8906C174.891 19.875 173.969 20.4844 173.984 21.375C173.969 22.2812 174.891 22.875 176.25 22.875C177.562 22.875 178.5 22.2812 178.516 21.375C178.5 20.4844 177.562 19.875 176.25 19.8906ZM196.344 18.375V24.0312H198.594V25.0625H196.344V32.2656H195.125V18.375H196.344ZM192.75 19.875C192.75 23.8125 190.906 27.3906 186.375 29.625L185.688 28.6562C189.281 26.8672 191.234 24.1953 191.516 20.9062H186.328V19.875H192.75ZM210.891 18.375V25.8281H209.672V18.375H210.891ZM203.109 26.5312V28.2188H209.672V26.5312H210.891V32.0781H201.891V26.5312H203.109ZM203.109 31.0781H209.672V29.2031H203.109V31.0781ZM203.391 19.0625C205.5 19.0469 207.031 20.3438 207.031 22.25C207.031 24.1406 205.5 25.4375 203.391 25.4375C201.281 25.4375 199.75 24.1406 199.75 22.25C199.75 20.3438 201.281 19.0469 203.391 19.0625ZM203.391 20.0938C201.969 20.0781 200.938 20.9844 200.953 22.25C200.938 23.5156 201.969 24.4219 203.391 24.4219C204.797 24.4219 205.828 23.5156 205.828 22.25C205.828 20.9844 204.797 20.0781 203.391 20.0938Z" fill="white"/>
</svg>
